# File created by Blade
# Date/Time:  Thu Sep 25 17:43:48 2014
# Frame Rate: 120.000 fps
#------------------------------------------------------
:FULLY-SPECIFIED
:DEGREES
236
root -39.153284 33.724455 -1.718368 -354.722332 -16.562172 4.304642
Spine -3.208708 7.026061 3.626922
Head -14.558747 6.670319 -3.325452
LeftShoulder -11.116312 22.124650 3.262170
LeftArm 35.003583 36.960626 -60.759105
LeftForeArm -5.184662 -0.000000 21.445802
LeftHand -20.759909 -0.000000 -4.867408
LeftHandThumb1 -26.253704 0.000000 33.147579
RightShoulder -16.823000 5.390015 -23.017122
RightArm -15.431734 -51.554545 99.079073
RightForeArm -6.231847 0.000000 35.784962
RightHand -2.691564 -0.000000 14.162538
RightHandThumb1 -24.326973 -0.000000 -32.862282
LeftUpLeg -5.686383 10.624641 5.525357
LeftLeg 14.456342 -0.000000 -0.000000
LeftFoot -0.519746 26.939660 341.401079
LeftToeBase -8.141608 -0.000000 0.000000
RightUpLeg -6.905525 -27.406469 3.043177
RightLeg 9.980142 -0.000000 -0.000000
RightFoot -1.208294 -22.805877 0.139423
RightToeBase -5.851303 -0.000000 0.000000
237
root -39.173730 33.744881 -1.755292 -354.703875 -15.069323 4.226609
Spine -3.088420 6.843541 4.029901
Head -14.568942 6.841934 -3.688719
LeftShoulder -11.103070 22.072752 3.250296
LeftArm 35.136580 36.957291 -60.419084
LeftForeArm -4.754370 -0.000000 21.186780
LeftHand -20.714886 -0.000000 -5.816764
LeftHandThumb1 -26.253704 0.000000 33.147579
RightShoulder -16.726122 5.429912 -23.209779
RightArm -15.314424 -51.503896 98.727408
RightForeArm -6.418559 -0.000000 35.817493
RightHand -2.712483 -0.000000 14.242124
RightHandThumb1 -24.326973 -0.000000 -32.862282
LeftUpLeg -6.095147 10.258926 5.139911
LeftLeg 14.287250 -0.000000 -0.000000
LeftFoot -0.411792 25.909837 342.399534
LeftToeBase -7.780957 -0.000000 0.000000
RightUpLeg -6.598119 -27.252011 2.755825
RightLeg 10.159961 -0.000000 -0.000000
RightFoot -1.216831 -22.009711 0.676735
RightToeBase -6.270305 -0.000000 0.000000
238
root -39.192632 33.761126 -1.791201 -354.682525 -13.583622 4.135393
Spine -2.991196 6.681142 4.439573
Head -14.580906 6.892971 -4.040220
LeftShoulder -10.967175 22.045583 3.305925
LeftArm 35.169444 36.955607 -60.134063
LeftForeArm -4.353646 -0.000000 20.980080
LeftHand -20.795401 -0.000000 -5.649905
LeftHandThumb1 -26.253704 0.000000 33.147579
RightShoulder -16.662880 5.478364 -23.440105
RightArm -15.311406 -51.488383 98.461923
RightForeArm -6.314672 -0.000000 35.837930
RightHand -2.703525 -0.000000 14.152241
RightHandThumb1 -24.326973 -0.000000 -32.862282
LeftUpLeg -6.459119 9.746145 4.793129
LeftLeg 14.068890 -0.000000 -0.000000
LeftFoot -0.509808 25.298649 342.919248
LeftToeBase -7.450496 -0.000000 0.000000
RightUpLeg -6.281087 -27.006394 2.445865
RightLeg 10.347149 -0.000000 -0.000000
RightFoot -1.156532 -21.567513 0.941662
RightToeBase -6.691498 -0.000000 0.000000
239
root -39.205966 33.774019 -1.836099 -354.616463 -12.081099 4.015123
Spine -2.912985 6.484575 4.917136
Head -14.670371 6.899528 -4.467743
LeftShoulder -10.892053 22.017040 3.324101
LeftArm 35.305107 36.935923 -59.827278
LeftForeArm -4.188372 -0.000000 20.685385
LeftHand -21.081491 -0.000000 -5.557969
LeftHandThumb1 -26.253704 0.000000 33.147579
RightShoulder -16.703747 5.481700 -23.646319
RightArm -15.159959 -51.654652 97.972674
RightForeArm -6.486470 -0.000000 36.031208
RightHand -3.100892 -0.000000 14.332560
RightHandThumb1 -24.326973 -0.000000 -32.862282
LeftUpLeg -6.901194 9.218647 4.488078
LeftLeg 13.935576 -0.000000 -0.000000
LeftFoot -0.711936 24.896597 342.920707
LeftToeBase -7.814725 -0.000000 0.000000
RightUpLeg -6.046173 -26.779742 2.183578
RightLeg 10.644149 -0.000000 -0.000000
RightFoot -1.310448 -20.706992 1.662199
RightToeBase -6.886575 -0.000000 0.000000
240
root -39.211161 33.783613 -1.872885 -354.582404 -10.721662 3.939557
Spine -2.839761 6.338158 5.367079
Head -14.732103 7.013771 -4.900185
LeftShoulder -10.869135 21.858592 3.318370
LeftArm 35.344724 37.061557 -59.518450
LeftForeArm -4.455446 -0.000000 20.299168
LeftHand -21.325142 -0.000000 -4.076640
LeftHandThumb1 -26.253704 0.000000 33.147579
RightShoulder -16.573905 5.567649 -23.947266
RightArm -15.299387 -51.349036 97.870375
RightForeArm -7.545737 -0.000000 35.889545
RightHand -2.687902 0.000000 13.761960
RightHandThumb1 -24.326973 -0.000000 -32.862282
LeftUpLeg -7.237838 8.725071 4.130183
LeftLeg 13.773642 -0.000000 -0.000000
LeftFoot -1.256402 24.508954 342.129073
LeftToeBase -7.706091 -0.000000 0.000000
RightUpLeg -5.753333 -26.311291 1.823610
RightLeg 10.937691 -0.000000 -0.000000
RightFoot -1.729061 -19.696413 2.643133
RightToeBase -7.410312 -0.000000 0.000000
241
root -39.216298 33.786732 -1.906719 -354.604027 -9.406127 3.873734
Spine -2.697621 6.164638 5.807371
Head -14.855687 7.128452 -5.365606
LeftShoulder -10.976301 21.737360 3.300444
LeftArm 35.467810 37.163634 -59.165301
LeftForeArm -4.385868 -0.000000 20.024954
LeftHand -21.369120 -0.000000 -4.281123
LeftHandThumb1 -26.253704 0.000000 33.147579
RightShoulder -16.475161 5.670906 -24.244764
RightArm -15.311542 -51.095914 97.627632
RightForeArm -8.137392 0.000000 35.852010
RightHand -2.744901 -0.000000 14.145996
RightHandThumb1 -24.326973 -0.000000 -32.862282
LeftUpLeg -7.506463 8.283526 3.798676
LeftLeg 13.636243 -0.000000 -0.000000
LeftFoot -1.737172 24.337713 341.635282
LeftToeBase -7.013056 -0.000000 0.000000
RightUpLeg -5.399343 -25.909265 1.420484
RightLeg 11.243988 -0.000000 -0.000000
RightFoot -2.067245 -18.511733 3.406153
RightToeBase -7.841233 -0.000000 0.000000
